<?xml version="1.0" encoding="UTF-8" standalone="no"?>
<!DOCTYPE svg PUBLIC "-//W3C//DTD SVG 20010904//EN"
"http://www.w3.org/TR/2001/REC-SVG-20010904/DTD/svg10.dtd">
<!-- Created with Inkscape (http://www.inkscape.org/) -->
<svg
   width="64pt"
   height="64pt"
   xmlns="http://www.w3.org/2000/svg"
   xmlns:cc="http://web.resource.org/cc/"
   xmlns:inkscape="http://www.inkscape.org/namespaces/inkscape"
   xmlns:sodipodi="http://sodipodi.sourceforge.net/DTD/sodipodi-0.dtd"
   xmlns:rdf="http://www.w3.org/1999/02/22-rdf-syntax-ns#"
   xmlns:dc="http://purl.org/dc/elements/1.1/"
   xmlns:xlink="http://www.w3.org/1999/xlink"
   id="svg1061"
   sodipodi:version="0.32"
   inkscape:version="0.40"
   inkscape:export-filename="/home/aaron/Desktop/icon-sonance.png"
   inkscape:export-xdpi="72.000000"
   inkscape:export-ydpi="72.000000"
   sodipodi:docbase="/home/aaron/Desktop"
   sodipodi:docname="sonance-icon.svg">
  <defs
     id="defs3">
    <linearGradient
       inkscape:collect="always"
       id="linearGradient1771">
      <stop
         style="stop-color:#000000;stop-opacity:1;"
         offset="0"
         id="stop1772" />
      <stop
         style="stop-color:#000000;stop-opacity:0;"
         offset="1"
         id="stop1773" />
    </linearGradient>
    <linearGradient
       inkscape:collect="always"
       id="linearGradient1758">
      <stop
         style="stop-color:#ffffff;stop-opacity:1;"
         offset="0"
         id="stop1759" />
      <stop
         style="stop-color:#ffffff;stop-opacity:0;"
         offset="1"
         id="stop1760" />
    </linearGradient>
    <linearGradient
       id="linearGradient1726">
      <stop
         style="stop-color:#999999;stop-opacity:1.0000000;"
         offset="0.0000000"
         id="stop1727" />
      <stop
         style="stop-color:#333333;stop-opacity:1.0000000;"
         offset="1.0000000"
         id="stop1728" />
    </linearGradient>
    <linearGradient
       id="linearGradient1700">
      <stop
         style="stop-color:#666666;stop-opacity:1.0000000;"
         offset="0.0000000"
         id="stop1701" />
      <stop
         style="stop-color:#aaaaaa;stop-opacity:1.0000000;"
         offset="1.0000000"
         id="stop1702" />
    </linearGradient>
    <linearGradient
       id="linearGradient1695">
      <stop
         style="stop-color:#dedede;stop-opacity:1.0000000;"
         offset="0.0000000"
         id="stop1696" />
      <stop
         style="stop-color:#f8f8f8;stop-opacity:1.0000000;"
         offset="1.0000000"
         id="stop1697" />
    </linearGradient>
    <linearGradient
       inkscape:collect="always"
       xlink:href="#linearGradient1695"
       id="linearGradient1698"
       x1="8.3817825"
       y1="7.1484375"
       x2="73.401161"
       y2="72.675781"
       gradientUnits="userSpaceOnUse" />
    <linearGradient
       inkscape:collect="always"
       xlink:href="#linearGradient1700"
       id="linearGradient1715"
       x1="5.7500000"
       y1="39.375000"
       x2="75.500000"
       y2="39.375000"
       gradientUnits="userSpaceOnUse" />
    <linearGradient
       inkscape:collect="always"
       xlink:href="#linearGradient1726"
       id="linearGradient1729"
       x1="19.040697"
       y1="23.896484"
       x2="37.209301"
       y2="42.060547"
       gradientUnits="userSpaceOnUse"
       gradientTransform="matrix(0.666667,0.000000,0.000000,1.000000,12.50000,6.250000)" />
    <linearGradient
       inkscape:collect="always"
       xlink:href="#linearGradient1726"
       id="linearGradient1731"
       gradientUnits="userSpaceOnUse"
       gradientTransform="translate(43.75000,-25.00000)"
       x1="19.040697"
       y1="23.896484"
       x2="37.209301"
       y2="42.060547" />
    <linearGradient
       inkscape:collect="always"
       xlink:href="#linearGradient1726"
       id="linearGradient1737"
       gradientTransform="matrix(0.808074,0.000000,0.000000,1.569527,-17.78964,0.156250)"
       x1="68.421562"
       y1="25.087177"
       x2="88.531128"
       y2="25.087177"
       gradientUnits="userSpaceOnUse" />
    <linearGradient
       inkscape:collect="always"
       xlink:href="#linearGradient1726"
       id="linearGradient1741"
       gradientUnits="userSpaceOnUse"
       gradientTransform="matrix(0.809181,0.000000,0.000000,1.568548,-17.88763,0.190674)"
       x1="68.421562"
       y1="25.087177"
       x2="88.531128"
       y2="25.087177" />
    <linearGradient
       inkscape:collect="always"
       xlink:href="#linearGradient1726"
       id="linearGradient1742"
       gradientUnits="userSpaceOnUse"
       gradientTransform="matrix(0.666667,0.000000,0.000000,1.000000,15.00000,6.250000)"
       x1="19.040697"
       y1="23.896484"
       x2="37.209301"
       y2="42.060547" />
    <linearGradient
       inkscape:collect="always"
       xlink:href="#linearGradient1726"
       id="linearGradient1747"
       gradientUnits="userSpaceOnUse"
       gradientTransform="matrix(0.809181,0.000000,0.000000,1.568548,-16.43922,3.431400e-2)"
       x1="68.421562"
       y1="25.087177"
       x2="88.531128"
       y2="25.087177" />
    <linearGradient
       inkscape:collect="always"
       xlink:href="#linearGradient1726"
       id="linearGradient1749"
       gradientUnits="userSpaceOnUse"
       gradientTransform="matrix(0.593816,0.000000,0.000000,1.224745,5.000000,-3.125000e-2)"
       x1="34.276581"
       y1="20.213869"
       x2="66.764862"
       y2="43.911636" />
    <linearGradient
       inkscape:collect="always"
       xlink:href="#linearGradient1758"
       id="linearGradient1761"
       x1="12.587210"
       y1="10.400391"
       x2="47.122093"
       y2="54.389648"
       gradientUnits="userSpaceOnUse" />
    <linearGradient
       inkscape:collect="always"
       xlink:href="#linearGradient1771"
       id="linearGradient1774"
       gradientTransform="scale(0.657952,1.519868)"
       x1="72.477036"
       y1="23.127911"
       x2="98.474770"
       y2="28.619625"
       gradientUnits="userSpaceOnUse" />
    <linearGradient
       inkscape:collect="always"
       xlink:href="#linearGradient1726"
       id="linearGradient1781"
       gradientUnits="userSpaceOnUse"
       gradientTransform="matrix(0.593816,0.000000,0.000000,1.224745,5.000000,-3.125000e-2)"
       x1="34.276581"
       y1="20.213869"
       x2="66.764862"
       y2="43.911636" />
    <linearGradient
       inkscape:collect="always"
       xlink:href="#linearGradient1771"
       id="linearGradient1782"
       gradientUnits="userSpaceOnUse"
       gradientTransform="scale(0.657952,1.519868)"
       x1="72.477036"
       y1="23.127911"
       x2="98.474770"
       y2="28.619625" />
  </defs>
  <sodipodi:namedview
     id="base"
     pagecolor="#ffffff"
     bordercolor="#666666"
     borderopacity="1.0"
     inkscape:pageopacity="0.0"
     inkscape:pageshadow="2"
     inkscape:zoom="8.9347764"
     inkscape:cx="32.545453"
     inkscape:cy="32.000000"
     inkscape:current-layer="layer1"
     showgrid="true"
     inkscape:grid-bbox="true"
     gridspacingy="1.0000000pt"
     gridspacingx="1.0000000pt"
     gridoriginy="0.0000000pt"
     gridoriginx="0.0000000pt"
     inkscape:window-width="1280"
     inkscape:window-height="926"
     inkscape:window-x="0"
     inkscape:window-y="25" />
  <metadata
     id="metadata4">
    <rdf:RDF
       id="RDF5">
      <cc:Work
         rdf:about=""
         id="Work6">
        <dc:format
           id="format7">image/svg+xml</dc:format>
        <dc:type
           id="type9"
           rdf:resource="http://purl.org/dc/dcmitype/StillImage" />
      </cc:Work>
    </rdf:RDF>
  </metadata>
  <g
     id="layer1"
     inkscape:label="Layer 1"
     inkscape:groupmode="layer">
    <rect
       style="fill:url(#linearGradient1698);fill-opacity:1.0;fill-rule:nonzero;stroke:url(#linearGradient1715);stroke-opacity:1.0000000;stroke-linejoin:miter;stroke-width:1.2500000;stroke-miterlimit:4.0000000;stroke-dasharray:none;opacity:1.0000000;"
       id="rect1072"
       width="68.750000"
       height="68.750000"
       x="6.2500000"
       y="5.0000000"
       rx="5.0000000"
       ry="5.0000000" />
    <path
       style="fill:url(#linearGradient1761);fill-opacity:1.0000000;fill-rule:nonzero;stroke:none;stroke-width:1.2500000;stroke-linejoin:miter;stroke-miterlimit:4.0000000;stroke-opacity:1.0000000"
       d="M 13.297542,7.5000000 C 10.778204,7.5000000 8.7500000,9.5282040 8.7500000,12.047542 L 8.7500000,65.481167 C 8.7500000,67.185426 9.7285920,68.596058 11.109038,69.375000 C 10.736500,68.714787 10.455328,68.001575 10.455328,67.186495 L 10.455328,13.752871 C 10.455328,11.233532 12.483532,9.2053284 15.002871,9.2053284 L 68.436495,9.2053284 C 69.251575,9.2053284 69.964787,9.4865000 70.625000,9.8590380 C 69.846058,8.4785922 68.435426,7.5000000 66.731167,7.5000000 L 13.297542,7.5000000 z "
       id="rect1750" />
    <path
       style="fill:#ffffff;fill-opacity:0.60000002;fill-rule:nonzero;stroke:none;stroke-width:1.2500000;stroke-linejoin:miter;stroke-miterlimit:4.0000000;stroke-opacity:1.0000000"
       d="M 42.500000,21.250000 L 31.031250,27.468750 L 22.500000,27.468750 L 22.500000,46.218750 L 30.968750,46.218750 L 42.500000,52.468750 L 42.500000,21.250000 z M 50.781250,22.500000 C 50.515700,22.500000 50.258293,22.602245 50.000000,22.656250 C 53.688198,23.427411 56.593750,29.491417 56.593750,36.937500 C 56.593751,44.383582 53.688198,50.447588 50.000000,51.218750 C 50.258293,51.272754 50.515699,51.375000 50.781250,51.375000 C 54.838635,51.375000 58.125001,44.905046 58.125000,36.937500 C 58.125000,28.969952 54.838635,22.500000 50.781250,22.500000 z M 48.156250,24.875000 C 47.931552,24.875000 47.718555,24.955346 47.500000,25.000000 C 50.620783,25.637627 53.062500,30.655782 53.062500,36.812500 C 53.062500,42.969217 50.620783,47.987373 47.500000,48.625000 C 47.718555,48.669656 47.931553,48.750000 48.156250,48.750000 C 51.589419,48.750000 54.375001,43.400384 54.375000,36.812500 C 54.375000,30.224614 51.589421,24.875000 48.156250,24.875000 z M 46.156250,27.375000 C 45.972407,27.375000 45.803818,27.433447 45.625000,27.468750 C 48.178368,27.972843 50.187500,31.945147 50.187500,36.812500 C 50.187501,41.679852 48.178368,45.652158 45.625000,46.156250 C 45.803818,46.191554 45.972407,46.250000 46.156250,46.250000 C 48.965208,46.250000 51.250001,42.020722 51.250000,36.812500 C 51.250000,31.604276 48.965209,27.375000 46.156250,27.375000 z "
       id="path1779" />
    <g
       id="g1775">
      <path
         style="fill:url(#linearGradient1749);fill-opacity:1.0000000;fill-rule:nonzero;stroke:none;stroke-width:1.2500000;stroke-linejoin:miter;stroke-miterlimit:4.0000000;stroke-opacity:1.0000000"
         d="M 45.000000,23.750000 L 33.545455,29.968750 L 25.000000,29.968750 L 25.000000,48.718750 L 33.454545,48.718750 L 45.000000,54.968750 L 45.000000,23.750000 z "
         id="rect1725" />
      <path
         style="fill:url(#linearGradient1774);fill-opacity:1.0;fill-rule:nonzero;stroke:none;stroke-width:0.34999999;stroke-linejoin:miter;stroke-miterlimit:4.0000000;stroke-opacity:1.0000000;"
         d="M 53.281250 25.000000 C 53.015700 25.000000 52.758293 25.102245 52.500000 25.156250 C 56.188198 25.927411 59.093750 31.991417 59.093750 39.437500 C 59.093751 46.883582 56.188198 52.947588 52.500000 53.718750 C 52.758293 53.772754 53.015699 53.875000 53.281250 53.875000 C 57.338635 53.875000 60.625001 47.405046 60.625000 39.437500 C 60.625000 31.469952 57.338635 25.000000 53.281250 25.000000 z M 50.656250 27.375000 C 50.431552 27.375000 50.218555 27.455346 50.000000 27.500000 C 53.120783 28.137627 55.562500 33.155782 55.562500 39.312500 C 55.562500 45.469217 53.120783 50.487373 50.000000 51.125000 C 50.218555 51.169656 50.431553 51.250000 50.656250 51.250000 C 54.089419 51.250000 56.875001 45.900384 56.875000 39.312500 C 56.875000 32.724614 54.089421 27.375000 50.656250 27.375000 z M 48.656250 29.875000 C 48.472407 29.875000 48.303818 29.933447 48.125000 29.968750 C 50.678368 30.472843 52.687500 34.445147 52.687500 39.312500 C 52.687501 44.179852 50.678368 48.152158 48.125000 48.656250 C 48.303818 48.691554 48.472407 48.750000 48.656250 48.750000 C 51.465208 48.750000 53.750001 44.520722 53.750000 39.312500 C 53.750000 34.104276 51.465209 29.875000 48.656250 29.875000 z "
         id="path1764" />
    </g>
  </g>
</svg>
