<?xml version="1.0" encoding="UTF-8" standalone="no"?>
<!-- Created with Inkscape (http://www.inkscape.org/) -->
<svg
   xmlns:ns="http://creativecommons.org/ns#"
   xmlns:dc="http://purl.org/dc/elements/1.1/"
   xmlns:cc="http://web.resource.org/cc/"
   xmlns:rdf="http://www.w3.org/1999/02/22-rdf-syntax-ns#"
   xmlns:svg="http://www.w3.org/2000/svg"
   xmlns="http://www.w3.org/2000/svg"
   xmlns:xlink="http://www.w3.org/1999/xlink"
   xmlns:sodipodi="http://sodipodi.sourceforge.net/DTD/sodipodi-0.dtd"
   xmlns:inkscape="http://www.inkscape.org/namespaces/inkscape"
   width="256"
   height="256"
   id="svg1365"
   sodipodi:version="0.32"
   inkscape:version="0.45.1"
   sodipodi:docbase="/home/aaron/cvs/banshee/branches/banshee-stable/data/images/app-icons/src"
   sodipodi:docname="music-player-banshee-hires.svg"
   inkscape:output_extension="org.inkscape.output.svg.inkscape"
   version="1.0"
   inkscape:export-filename="/home/aaron/cvs/banshee/branches/banshee-stable/data/images/app-icons/music-player-banshee-scalable.png"
   inkscape:export-xdpi="90"
   inkscape:export-ydpi="90">
  <defs
     id="defs1367">
    <linearGradient
       inkscape:collect="always"
       id="linearGradient6459">
      <stop
         style="stop-color:#ffffff;stop-opacity:1;"
         offset="0"
         id="stop6461" />
      <stop
         style="stop-color:#ffffff;stop-opacity:0;"
         offset="1"
         id="stop6463" />
    </linearGradient>
    <linearGradient
       inkscape:collect="always"
       id="linearGradient6373">
      <stop
         style="stop-color:#000000;stop-opacity:1;"
         offset="0"
         id="stop6375" />
      <stop
         style="stop-color:#000000;stop-opacity:0;"
         offset="1"
         id="stop6377" />
    </linearGradient>
    <linearGradient
       id="linearGradient6043">
      <stop
         id="stop6045"
         offset="0"
         style="stop-color:#ffffff;stop-opacity:1;" />
      <stop
         style="stop-color:#d4d4d4;stop-opacity:1;"
         offset="0.83333331"
         id="stop6047" />
      <stop
         id="stop6049"
         offset="1"
         style="stop-color:#f0f0f0;stop-opacity:1;" />
    </linearGradient>
    <linearGradient
       inkscape:collect="always"
       id="linearGradient5997">
      <stop
         style="stop-color:#ffffff;stop-opacity:1;"
         offset="0"
         id="stop5999" />
      <stop
         style="stop-color:#ffffff;stop-opacity:0;"
         offset="1"
         id="stop6001" />
    </linearGradient>
    <linearGradient
       inkscape:collect="always"
       id="linearGradient5959">
      <stop
         style="stop-color:#ffffff;stop-opacity:1;"
         offset="0"
         id="stop5961" />
      <stop
         style="stop-color:#ffffff;stop-opacity:0;"
         offset="1"
         id="stop5963" />
    </linearGradient>
    <linearGradient
       inkscape:collect="always"
       id="linearGradient5787">
      <stop
         style="stop-color:#ffffff;stop-opacity:1;"
         offset="0"
         id="stop5789" />
      <stop
         style="stop-color:#ffffff;stop-opacity:0;"
         offset="1"
         id="stop5791" />
    </linearGradient>
    <linearGradient
       inkscape:collect="always"
       id="linearGradient5779">
      <stop
         style="stop-color:#000000;stop-opacity:1;"
         offset="0"
         id="stop5781" />
      <stop
         style="stop-color:#000000;stop-opacity:0;"
         offset="1"
         id="stop5783" />
    </linearGradient>
    <linearGradient
       id="linearGradient5768">
      <stop
         style="stop-color:#357cc7;stop-opacity:1;"
         offset="0"
         id="stop5770" />
      <stop
         style="stop-color:#729fcf;stop-opacity:1;"
         offset="1"
         id="stop5772" />
    </linearGradient>
    <linearGradient
       id="linearGradient5596">
      <stop
         style="stop-color:#000000;stop-opacity:0;"
         offset="0"
         id="stop5598" />
      <stop
         id="stop5604"
         offset="0.88095236"
         style="stop-color:#000000;stop-opacity:0;" />
      <stop
         style="stop-color:#000000;stop-opacity:1;"
         offset="1"
         id="stop5600" />
    </linearGradient>
    <linearGradient
       inkscape:collect="always"
       id="linearGradient2811">
      <stop
         style="stop-color:#ffffff;stop-opacity:1;"
         offset="0"
         id="stop2813" />
      <stop
         style="stop-color:#ffffff;stop-opacity:0;"
         offset="1"
         id="stop2815" />
    </linearGradient>
    <linearGradient
       id="linearGradient2252">
      <stop
         style="stop-color:#ffffff;stop-opacity:1;"
         offset="0"
         id="stop2254" />
      <stop
         id="stop5592"
         offset="0.83333331"
         style="stop-color:#d4d4d4;stop-opacity:1;" />
      <stop
         style="stop-color:#f0f0f0;stop-opacity:1;"
         offset="1"
         id="stop2256" />
    </linearGradient>
    <radialGradient
       inkscape:collect="always"
       xlink:href="#linearGradient6043"
       id="radialGradient2888"
       gradientUnits="userSpaceOnUse"
       gradientTransform="matrix(1.378698,0,0,0.811718,-47.1293,130.4104)"
       cx="181.89339"
       cy="356.04828"
       fx="181.89339"
       fy="356.04828"
       r="478.00418" />
    <linearGradient
       inkscape:collect="always"
       id="linearGradient2238">
      <stop
         style="stop-color:#000000;stop-opacity:1;"
         offset="0"
         id="stop2240" />
      <stop
         style="stop-color:#000000;stop-opacity:0;"
         offset="1"
         id="stop2242" />
    </linearGradient>
    <radialGradient
       inkscape:collect="always"
       xlink:href="#linearGradient2238"
       id="radialGradient2262"
       gradientUnits="userSpaceOnUse"
       gradientTransform="matrix(0.9073458,1.0097604e-6,-3.2314996e-7,0.379032,37.154558,419.6882)"
       cx="401"
       cy="675.86218"
       fx="401"
       fy="675.86218"
       r="186" />
    <radialGradient
       inkscape:collect="always"
       xlink:href="#linearGradient2238"
       id="radialGradient4610"
       gradientUnits="userSpaceOnUse"
       gradientTransform="matrix(1,0,0,0.379032,0,419.6886)"
       cx="401"
       cy="675.86218"
       fx="401"
       fy="675.86218"
       r="186" />
    <radialGradient
       inkscape:collect="always"
       xlink:href="#linearGradient2252"
       id="radialGradient4612"
       gradientUnits="userSpaceOnUse"
       gradientTransform="matrix(1.378698,0,0,0.811718,-47.1293,130.4104)"
       cx="124.4508"
       cy="398.832"
       fx="124.4508"
       fy="398.832"
       r="478.00418" />
    <linearGradient
       inkscape:collect="always"
       xlink:href="#linearGradient2811"
       id="linearGradient4614"
       gradientUnits="userSpaceOnUse"
       gradientTransform="matrix(0.885258,0,0,0.885258,2.00517e-2,-0.543919)"
       x1="28.675304"
       y1="32.720608"
       x2="22.66423"
       y2="12.158106" />
    <radialGradient
       inkscape:collect="always"
       xlink:href="#linearGradient5596"
       id="radialGradient5602"
       cx="203.64676"
       cy="500.90366"
       fx="203.64676"
       fy="500.90366"
       r="478.00418"
       gradientTransform="matrix(1,0,0,0.5887574,0,219.33453)"
       gradientUnits="userSpaceOnUse" />
    <filter
       inkscape:collect="always"
       id="filter5638">
      <feGaussianBlur
         inkscape:collect="always"
         stdDeviation="23.090676"
         id="feGaussianBlur5640" />
    </filter>
    <filter
       inkscape:collect="always"
       id="filter5746">
      <feGaussianBlur
         inkscape:collect="always"
         stdDeviation="0.98194456"
         id="feGaussianBlur5748" />
    </filter>
    <linearGradient
       inkscape:collect="always"
       xlink:href="#linearGradient5768"
       id="linearGradient5774"
       x1="147.40434"
       y1="46.403793"
       x2="158.1882"
       y2="191.40379"
       gradientUnits="userSpaceOnUse"
       gradientTransform="translate(-3,-4)" />
    <linearGradient
       inkscape:collect="always"
       xlink:href="#linearGradient5779"
       id="linearGradient5785"
       x1="125.08817"
       y1="145.63841"
       x2="125.18135"
       y2="89.638412"
       gradientUnits="userSpaceOnUse"
       gradientTransform="translate(-3,-5)" />
    <linearGradient
       inkscape:collect="always"
       xlink:href="#linearGradient5787"
       id="linearGradient5793"
       x1="126.08817"
       y1="143.63843"
       x2="125.18135"
       y2="93.638412"
       gradientUnits="userSpaceOnUse"
       gradientTransform="translate(-3,-4)" />
    <filter
       inkscape:collect="always"
       x="-0.04739229"
       width="1.0947846"
       y="-0.1239743"
       height="1.2479486"
       id="filter5955">
      <feGaussianBlur
         inkscape:collect="always"
         stdDeviation="1.9904762"
         id="feGaussianBlur5957" />
    </filter>
    <linearGradient
       inkscape:collect="always"
       xlink:href="#linearGradient5959"
       id="linearGradient5965"
       x1="100"
       y1="187.05556"
       x2="101"
       y2="14"
       gradientUnits="userSpaceOnUse"
       gradientTransform="translate(-3,-4)" />
    <filter
       inkscape:collect="always"
       x="-0.026832864"
       width="1.0536657"
       y="-0.154267"
       height="1.308534"
       id="filter5993">
      <feGaussianBlur
         inkscape:collect="always"
         stdDeviation="1.0464817"
         id="feGaussianBlur5995" />
    </filter>
    <linearGradient
       inkscape:collect="always"
       xlink:href="#linearGradient5997"
       id="linearGradient6003"
       x1="113.5"
       y1="133.96643"
       x2="191.5"
       y2="133.96643"
       gradientUnits="userSpaceOnUse"
       gradientTransform="translate(-1,-4)" />
    <filter
       inkscape:collect="always"
       id="filter6039">
      <feGaussianBlur
         inkscape:collect="always"
         stdDeviation="1.2113182"
         id="feGaussianBlur6041" />
    </filter>
    <filter
       inkscape:collect="always"
       x="-0.14363152"
       width="1.287263"
       y="-0.27443874"
       height="1.5488775"
       id="filter6113">
      <feGaussianBlur
         inkscape:collect="always"
         stdDeviation="8.1715471"
         id="feGaussianBlur6115" />
    </filter>
    <linearGradient
       inkscape:collect="always"
       xlink:href="#linearGradient5997"
       id="linearGradient6259"
       gradientUnits="userSpaceOnUse"
       x1="138.25"
       y1="127.17625"
       x2="139.75"
       y2="138.5"
       gradientTransform="translate(-1,-4)" />
    <filter
       inkscape:collect="always"
       x="-0.30285714"
       width="1.6057143"
       y="-0.30285714"
       height="1.6057143"
       id="filter6341">
      <feGaussianBlur
         inkscape:collect="always"
         stdDeviation="1.2114286"
         id="feGaussianBlur6343" />
    </filter>
    <linearGradient
       inkscape:collect="always"
       xlink:href="#linearGradient6373"
       id="linearGradient6379"
       x1="103"
       y1="92.252792"
       x2="99.925926"
       y2="160.25279"
       gradientUnits="userSpaceOnUse"
       gradientTransform="translate(-3,-2.5)" />
    <filter
       inkscape:collect="always"
       x="-0.11108882"
       width="1.2221776"
       y="-0.09576124"
       height="1.1915225"
       id="filter6397">
      <feGaussianBlur
         inkscape:collect="always"
         stdDeviation="2.3328652"
         id="feGaussianBlur6399" />
    </filter>
    <filter
       inkscape:collect="always"
       id="filter6455">
      <feGaussianBlur
         inkscape:collect="always"
         stdDeviation="0.81964286"
         id="feGaussianBlur6457" />
    </filter>
    <linearGradient
       inkscape:collect="always"
       xlink:href="#linearGradient6459"
       id="linearGradient6465"
       x1="68.25"
       y1="33.875"
       x2="115.5"
       y2="33.875"
       gradientUnits="userSpaceOnUse"
       gradientTransform="translate(-3,-4)" />
    <filter
       inkscape:collect="always"
       x="-0.10662355"
       width="1.2132471"
       y="-0.21639357"
       height="1.4327871"
       id="filter5721">
      <feGaussianBlur
         inkscape:collect="always"
         stdDeviation="2.5323094"
         id="feGaussianBlur5723" />
    </filter>
    <clipPath
       clipPathUnits="userSpaceOnUse"
       id="clipPath5742">
      <path
         sodipodi:nodetypes="czccccccccc"
         id="path5744"
         d="M 395.51018,133.44212 C 465.65554,111.20357 479.1882,134.06134 479.1882,155.00036 C 479.1882,176.36948 452.15838,205.34253 370.93332,196.56867 L 370.76927,38.582759 C 344.73175,37.925089 348.04232,57.085689 308.40435,58.644691 C 339.81772,39.420297 335.00435,11.944809 395.47945,10.629478 L 395.51018,133.44212 z M 395.51018,181.05789 C 409.20241,181.95412 450.23068,176.15786 450.23068,155.44947 C 450.23068,132.25193 404.677,143.73659 395.51018,148.53746 L 395.51018,181.05789 z "
         style="font-size:659.45355225px;font-style:normal;font-variant:normal;font-weight:normal;font-stretch:normal;text-align:start;line-height:100%;writing-mode:lr-tb;text-anchor:start;fill:url(#linearGradient5746);fill-opacity:1;stroke:none;stroke-width:1.00000048;stroke-linecap:butt;stroke-linejoin:miter;stroke-miterlimit:10;stroke-dasharray:none;stroke-opacity:1;font-family:Likhan" />
    </clipPath>
    <linearGradient
       inkscape:collect="always"
       xlink:href="#linearGradient5768"
       id="linearGradient5746"
       gradientUnits="userSpaceOnUse"
       gradientTransform="translate(280,0)"
       x1="147.40434"
       y1="46.403793"
       x2="158.1882"
       y2="191.40379" />
    <filter
       inkscape:collect="always"
       id="filter5788">
      <feGaussianBlur
         inkscape:collect="always"
         stdDeviation="3.5833248"
         id="feGaussianBlur5790" />
    </filter>
    <radialGradient
       inkscape:collect="always"
       xlink:href="#linearGradient2238"
       id="radialGradient5190"
       gradientUnits="userSpaceOnUse"
       gradientTransform="matrix(1,0,0,0.379032,0,419.6886)"
       cx="401"
       cy="675.86218"
       fx="401"
       fy="675.86218"
       r="186" />
    <filter
       inkscape:collect="always"
       id="filter5909"
       x="-0.098471856"
       width="1.1969437"
       y="-0.25979809"
       height="1.5195962">
      <feGaussianBlur
         inkscape:collect="always"
         stdDeviation="15.263138"
         id="feGaussianBlur5911" />
    </filter>
  </defs>
  <sodipodi:namedview
     inkscape:document-units="mm"
     pagecolor="#ffffff"
     bordercolor="#666"
     borderopacity="0.34117647"
     inkscape:pageopacity="0.0"
     inkscape:pageshadow="2"
     inkscape:zoom="1"
     inkscape:cx="139.6187"
     inkscape:cy="234.57634"
     inkscape:current-layer="layer1"
     id="namedview1369"
     inkscape:window-width="880"
     inkscape:window-height="836"
     inkscape:window-x="682"
     inkscape:window-y="99"
     inkscape:showpageshadow="false"
     width="256px"
     height="256px" />
  <metadata
     id="metadata1371">
    <rdf:RDF>
      <ns:Work
         rdf:about="">
        <dc:format>image/svg+xml</dc:format>
        <dc:type
           rdf:resource="http://purl.org/dc/dcmitype/StillImage" />
      </ns:Work>
      <cc:Work
         rdf:about="">
        <dc:format>image/svg+xml</dc:format>
        <dc:type
           rdf:resource="http://purl.org/dc/dcmitype/StillImage" />
      </cc:Work>
    </rdf:RDF>
  </metadata>
  <g
     inkscape:label="Layer 1"
     inkscape:groupmode="layer"
     id="layer1">
    <g
       transform="translate(-59.898458,0.208375)"
       id="g4596">
      <path
         transform="matrix(9.393708e-2,0,0,0.103784,-12.67532,-32.32667)"
         d="M 587 675.86218 A 186 70.5 0 1 1  215,675.86218 A 186 70.5 0 1 1  587 675.86218 z"
         sodipodi:ry="70.5"
         sodipodi:rx="186"
         sodipodi:cy="675.86218"
         sodipodi:cx="401"
         id="path4598"
         style="opacity:0.23863633;color:#000000;fill:url(#radialGradient4610);fill-opacity:1;fill-rule:nonzero;stroke:none;stroke-width:1;stroke-linecap:round;stroke-linejoin:round;marker:none;marker-start:none;marker-mid:none;marker-end:none;stroke-miterlimit:4;stroke-dasharray:none;stroke-dashoffset:0;stroke-opacity:1;visibility:visible;display:inline;overflow:visible"
         sodipodi:type="arc" />
      <path
         sodipodi:type="arc"
         style="opacity:1;color:#000000;fill:url(#radialGradient4612);fill-opacity:1;fill-rule:nonzero;stroke:#9e9e9e;stroke-width:26.00042915;stroke-linecap:round;stroke-linejoin:round;marker:none;marker-start:none;marker-mid:none;marker-end:none;stroke-miterlimit:4;stroke-dasharray:none;stroke-dashoffset:0;stroke-opacity:1;visibility:visible;display:inline;overflow:visible"
         id="path4600"
         sodipodi:cx="203.64676"
         sodipodi:cy="533.34583"
         sodipodi:rx="478.00418"
         sodipodi:ry="281.4285"
         d="M 681.65094 533.34583 A 478.00418 281.4285 0 1 1  -274.35742,533.34583 A 478.00418 281.4285 0 1 1  681.65094 533.34583 z"
         transform="matrix(3.053148e-2,0,0,4.84497e-2,18.50203,2.19102)" />
      <path
         transform="matrix(2.825591e-2,0,0,4.483864e-2,18.96544,4.116962)"
         d="M 681.65094 533.34583 A 478.00418 281.4285 0 1 1  -274.35742,533.34583 A 478.00418 281.4285 0 1 1  681.65094 533.34583 z"
         sodipodi:ry="281.4285"
         sodipodi:rx="478.00418"
         sodipodi:cy="533.34583"
         sodipodi:cx="203.64676"
         id="path4602"
         style="opacity:1;color:#000000;fill:none;fill-opacity:1;fill-rule:nonzero;stroke:#ffffff;stroke-width:28.09436035;stroke-linecap:round;stroke-linejoin:round;marker:none;marker-start:none;marker-mid:none;marker-end:none;stroke-miterlimit:4;stroke-dasharray:none;stroke-dashoffset:0;stroke-opacity:1;visibility:visible;display:inline;overflow:visible"
         sodipodi:type="arc" />
      <path
         style="opacity:1;color:#000000;fill:#ffffff;fill-opacity:1;fill-rule:nonzero;stroke:#ffffff;stroke-width:1;stroke-linecap:butt;stroke-linejoin:miter;marker:none;marker-start:none;marker-mid:none;marker-end:none;stroke-miterlimit:4;stroke-dasharray:none;stroke-dashoffset:0;stroke-opacity:1;visibility:visible;display:inline;overflow:visible"
         d="M 21.574143,15.989276 C 20.106883,16.315012 18.707843,16.877914 17.449143,17.583026 L 17.303616,35.072303 C 30.970346,36.548572 35.491116,31.66782 35.491116,28.072303 C 35.491116,24.549154 33.231116,20.705497 21.428616,24.447303 L 21.605393,15.989276 C 21.595603,15.991429 21.583923,15.987104 21.574143,15.989276 z M 26.522366,25.791053 C 28.669996,25.674903 30.647366,26.152728 30.647366,28.134803 C 30.647366,31.619147 23.732446,32.5981 21.428616,32.447303 L 21.428616,26.978553 C 22.187766,26.580973 24.440816,25.903629 26.522366,25.791053 z "
         id="path4604"
         sodipodi:nodetypes="cccsccccsccc" />
      <path
         style="font-size:659.45355225px;font-style:normal;font-variant:normal;font-weight:normal;font-stretch:normal;text-align:start;line-height:100%;writing-mode:lr-tb;text-anchor:start;fill:#729fcf;fill-opacity:1;stroke:#3465a4;stroke-width:1.00000048;stroke-linecap:butt;stroke-linejoin:miter;stroke-miterlimit:10;stroke-dasharray:none;stroke-opacity:1;font-family:Likhan"
         d="M 20.487389,23.613629 C 32.28988,19.871823 34.566852,23.717817 34.566852,27.240966 C 34.566852,30.836483 30.018879,35.711419 16.352146,34.23515 L 16.324543,7.6528194 C 11.943532,7.5421614 12.500561,10.766078 5.83117,11.028392 C 11.116708,7.7937414 10.306822,3.1707816 20.482219,2.9494671 L 20.487389,23.613629 z M 20.487389,31.625344 C 22.79121,31.776141 29.69453,30.800877 29.69453,27.316533 C 29.69453,23.41337 22.029776,25.345752 20.487389,26.153534 L 20.487389,31.625344 z "
         id="path4606"
         sodipodi:nodetypes="czccccccccc" />
      <path
         sodipodi:nodetypes="czcccccczcc"
         id="path4608"
         d="M 19.690359,24.779544 C 29.898723,21.543133 33.749324,23.043815 33.693996,27.197676 C 33.637199,31.461815 27.93446,34.247406 17.275552,33.413161 L 17.196349,6.6588794 C 11.199677,6.8248654 10.183141,8.2002314 8.9724935,8.9805408 C 10.003097,7.7768234 11.87617,3.9740113 19.630558,3.9186827 L 19.690359,24.779544 z M 19.690359,32.428413 C 21.683009,32.558842 30.586337,32.2284 30.531008,27.318364 C 30.475679,22.352998 21.079749,24.894499 19.745688,25.593175 L 19.690359,32.428413 z "
         style="font-size:659.45355225px;font-style:normal;font-variant:normal;font-weight:normal;font-stretch:normal;text-align:start;line-height:100%;writing-mode:lr-tb;text-anchor:start;opacity:0.48863639;fill:none;fill-opacity:1;stroke:url(#linearGradient4614);stroke-width:1.00000048;stroke-linecap:butt;stroke-linejoin:miter;stroke-miterlimit:10;stroke-dasharray:none;stroke-opacity:1;font-family:Likhan" />
    </g>
    <g
       id="g2268">
      <path
         transform="matrix(0.2605523,0,0,0.2786464,34.809384,35.530006)"
         d="M 587,675.86218 A 186,70.5 0 1 1 215,675.86218 A 186,70.5 0 1 1 587,675.86218 z"
         sodipodi:ry="70.5"
         sodipodi:rx="186"
         sodipodi:cy="675.86218"
         sodipodi:cx="401"
         id="path5188"
         style="opacity:1;fill:url(#radialGradient5190);fill-opacity:1;fill-rule:nonzero;stroke:none;stroke-width:1;stroke-linecap:round;stroke-linejoin:round;marker:none;marker-start:none;marker-mid:none;marker-end:none;stroke-miterlimit:4;stroke-dasharray:none;stroke-dashoffset:0;stroke-opacity:1;visibility:visible;display:inline;overflow:visible"
         sodipodi:type="arc" />
      <path
         sodipodi:type="arc"
         style="opacity:0.74096386;fill:url(#radialGradient2262);fill-opacity:1;fill-rule:nonzero;stroke:none;stroke-width:1;stroke-linecap:round;stroke-linejoin:round;marker:none;marker-start:none;marker-mid:none;marker-end:none;stroke-miterlimit:4;stroke-dasharray:none;stroke-dashoffset:0;stroke-opacity:1;visibility:visible;display:inline;overflow:visible;filter:url(#filter5909)"
         id="path2260"
         sodipodi:cx="401"
         sodipodi:cy="675.86218"
         sodipodi:rx="186"
         sodipodi:ry="70.5"
         d="M 587,675.86218 A 186,70.5 0 1 1 215,675.86218 A 186,70.5 0 1 1 587,675.86218 z"
         transform="matrix(0.4642072,0,0,0.406306,-47.856182,-54.750272)" />
      <path
         transform="matrix(0.1814568,0,0,0.2879495,100.71066,2.1218234)"
         d="M 681.65094 533.34583 A 478.00418 281.4285 0 1 1  -274.35742,533.34583 A 478.00418 281.4285 0 1 1  681.65094 533.34583 z"
         sodipodi:ry="281.4285"
         sodipodi:rx="478.00418"
         sodipodi:cy="533.34583"
         sodipodi:cx="203.64676"
         id="path2250"
         style="color:#000000;fill:url(#radialGradient2888);fill-opacity:1;fill-rule:nonzero;stroke:none;stroke-width:4.37477016;stroke-linecap:round;stroke-linejoin:round;marker:none;marker-start:none;marker-mid:none;marker-end:none;stroke-miterlimit:4;stroke-dasharray:none;stroke-dashoffset:0;stroke-opacity:1;visibility:visible;display:inline;overflow:visible"
         sodipodi:type="arc" />
      <path
         sodipodi:type="arc"
         style="opacity:0.07428571;color:#000000;fill:url(#radialGradient5602);fill-opacity:1;fill-rule:nonzero;stroke:none;stroke-width:4.37477016;stroke-linecap:round;stroke-linejoin:round;marker:none;marker-start:none;marker-mid:none;marker-end:none;stroke-miterlimit:4;stroke-dasharray:none;stroke-dashoffset:0;stroke-opacity:1;visibility:visible;display:inline;overflow:visible;filter:url(#filter5638)"
         id="path5594"
         sodipodi:cx="203.64676"
         sodipodi:cy="533.34583"
         sodipodi:rx="478.00418"
         sodipodi:ry="281.4285"
         d="M 681.65094 533.34583 A 478.00418 281.4285 0 1 1  -274.35742,533.34583 A 478.00418 281.4285 0 1 1  681.65094 533.34583 z"
         transform="matrix(0.1685854,0,0,0.2559697,103.33188,15.678065)" />
      <path
         style="opacity:0.18285714;color:#000000;fill:url(#linearGradient5785);fill-opacity:1;fill-rule:nonzero;stroke:none;stroke-width:1;stroke-linecap:butt;stroke-linejoin:miter;marker:none;marker-start:none;marker-mid:none;marker-end:none;stroke-miterlimit:4;stroke-dasharray:none;stroke-dashoffset:0;stroke-opacity:1;visibility:visible;display:inline;overflow:visible;filter:url(#filter5746)"
         d="M 110.87788,77.128553 C 101.67352,79.064489 92.89711,82.409966 85.00108,86.600635 L 84.088165,190.54409 C 169.82181,199.31795 198.18135,170.31034 198.18135,148.94122 C 198.18135,128.0022 184.004,105.15832 109.96496,127.39687 L 111.07392,77.128553 C 111.0125,77.141348 110.93924,77.115644 110.87788,77.128553 z M 141.91889,135.38314 C 155.39133,134.69283 167.7957,137.53267 167.7957,149.31267 C 167.7957,170.02106 124.41727,175.83924 109.96496,174.94301 L 109.96496,142.44077 C 114.72725,140.07784 128.861,136.05221 141.91889,135.38314 z "
         id="path5777"
         sodipodi:nodetypes="cccsccccsccc" />
      <path
         sodipodi:nodetypes="cccsc"
         id="path6371"
         d="M 112.5,116.5 C 112.5,116.5 113.5,87.827551 131,77.5 C 116.5,77.172449 95,87.304431 95,88.5 C 95,88.5 89,110.5 89,122.5 C 89,134.5 112.5,115.5 112.5,116.5 z "
         style="opacity:0.07999998;fill:url(#linearGradient6379);fill-opacity:1;fill-rule:evenodd;stroke:none;stroke-width:1px;stroke-linecap:butt;stroke-linejoin:miter;stroke-opacity:1;filter:url(#filter6397)" />
      <path
         sodipodi:nodetypes="cccsccccsccc"
         id="path2892"
         d="M 110.87788,82.128553 C 101.67352,84.064489 92.89711,87.409966 85.00108,91.600635 L 84.088165,195.54409 C 169.82181,204.31795 198.18135,175.31034 198.18135,153.94122 C 198.18135,133.0022 184.004,110.15832 109.96496,132.39687 L 111.07392,82.128553 C 111.0125,82.141348 110.93924,82.115644 110.87788,82.128553 z M 141.91889,140.38314 C 155.39133,139.69283 167.7957,142.53267 167.7957,154.31267 C 167.7957,175.02106 124.41727,180.83924 109.96496,179.94301 L 109.96496,147.44077 C 114.72725,145.07784 128.861,141.05221 141.91889,140.38314 z "
         style="opacity:0.56571428;color:#000000;fill:url(#linearGradient5793);fill-opacity:1;fill-rule:nonzero;stroke:none;stroke-width:1;stroke-linecap:butt;stroke-linejoin:miter;marker:none;marker-start:none;marker-mid:none;marker-end:none;stroke-miterlimit:4;stroke-dasharray:none;stroke-dashoffset:0;stroke-opacity:1;visibility:visible;display:inline;overflow:visible;filter:url(#filter5746)" />
      <path
         transform="matrix(0.503837,0,0,0.5697597,71.749262,43.175233)"
         d="M 191 105 A 60.5 28 0 1 1  70,105 A 60.5 28 0 1 1  191 105 z"
         sodipodi:ry="28"
         sodipodi:rx="60.5"
         sodipodi:cy="105"
         sodipodi:cx="130.5"
         id="path6063"
         style="opacity:0.83999999;color:#000000;fill:#ffffff;fill-opacity:1;fill-rule:evenodd;stroke:none;stroke-width:4;stroke-linecap:round;stroke-linejoin:round;marker:none;marker-start:none;marker-mid:none;marker-end:none;stroke-miterlimit:4;stroke-dasharray:none;stroke-dashoffset:0;stroke-opacity:1;visibility:visible;display:inline;overflow:visible;filter:url(#filter6113);enable-background:accumulate"
         sodipodi:type="arc" />
      <path
         sodipodi:nodetypes="czccccccccc"
         id="text1358"
         d="M 112.51018,129.44212 C 182.65554,107.20357 196.1882,130.06134 196.1882,151.00036 C 196.1882,172.36948 169.15838,201.34253 87.933324,192.56867 L 87.769272,34.582759 C 61.731751,33.925089 65.042323,53.085689 25.404347,54.644691 C 56.817715,35.420297 52.004345,7.944809 112.47945,6.629478 L 112.51018,129.44212 z M 112.51018,177.05789 C 126.20241,177.95412 167.23068,172.15786 167.23068,151.44947 C 167.23068,128.25193 121.677,139.73659 112.51018,144.53746 L 112.51018,177.05789 z "
         style="font-size:659.45355225px;font-style:normal;font-variant:normal;font-weight:normal;font-stretch:normal;text-align:start;line-height:100%;writing-mode:lr-tb;text-anchor:start;opacity:1;fill:url(#linearGradient5774);fill-opacity:1;stroke:none;stroke-width:1.00000048;stroke-linecap:butt;stroke-linejoin:miter;stroke-miterlimit:10;stroke-dasharray:none;stroke-opacity:1;font-family:Likhan" />
      <path
         sodipodi:nodetypes="ccscsccc"
         id="path5795"
         d="M 92.75,34.75 L 94.5,188 C 94.5,188 114,192.75 135,188 C 156,183.25 181,169 181,169 C 181,169 149.5,179.75 130,183 C 110.5,186.25 100.5,182 100.5,182 L 98,35 L 92.75,34.75 z "
         style="opacity:0.23428572;fill:url(#linearGradient5965);fill-opacity:1;fill-rule:evenodd;stroke:none;stroke-width:1px;stroke-linecap:butt;stroke-linejoin:miter;stroke-opacity:1;filter:url(#filter5955)" />
      <path
         transform="translate(-283,-4)"
         clip-path="url(#clipPath5742)"
         id="rect5819"
         d="M 267.71875,-58 C 264.00097,-58 261,-55.886497 261,-53.25 L 261,250.25 C 261,252.8865 264.00098,255 267.71875,255 L 536.28125,255 C 539.99903,255 543,252.88649 543,250.25 L 543,-53.25 C 543,-55.886499 539.99905,-58 536.28125,-58 L 267.71875,-58 z M 395.46875,7.625 L 395.5,130.4375 C 465.64535,108.19895 479.1875,131.06098 479.1875,152 C 479.1875,173.36911 452.16256,202.33636 370.9375,193.5625 L 370.78125,35.59375 C 344.74374,34.936079 348.04422,54.097248 308.40625,55.65625 C 339.81961,36.431856 334.99365,8.940331 395.46875,7.625 z M 428.65625,138.4375 C 415.53328,138.55853 400.36987,142.98079 395.5,145.53125 L 395.5,178.0625 C 409.19222,178.95873 450.21875,173.14589 450.21875,152.4375 C 450.21875,141.56366 440.23534,138.33071 428.65625,138.4375 z "
         style="opacity:0.30857143;color:#000000;fill:#132b50;fill-opacity:1;fill-rule:evenodd;stroke:#000000;stroke-width:2;stroke-linecap:round;stroke-linejoin:round;marker:none;marker-start:none;marker-mid:none;marker-end:none;stroke-miterlimit:4;stroke-dasharray:none;stroke-dashoffset:0;stroke-opacity:1;visibility:visible;display:inline;overflow:visible;enable-background:accumulate;filter:url(#filter5788)" />
      <path
         sodipodi:nodetypes="ccscsc"
         id="path5967"
         d="M 114.75,132.75 L 112.5,136.75 C 112.5,136.75 141.9375,126.5625 162,126.5 C 182.0625,126.4375 190.5,134.75 190.5,134.75 C 190.5,134.75 181.8125,124.25 162.75,123.25 C 143.6875,122.25 114.75,132.75 114.75,132.75 z "
         style="opacity:0.78857141;fill:url(#linearGradient6003);fill-opacity:1;fill-rule:evenodd;stroke:none;stroke-width:1px;stroke-linecap:butt;stroke-linejoin:miter;stroke-opacity:1;filter:url(#filter5993)" />
      <path
         sodipodi:nodetypes="ccsc"
         id="path6005"
         d="M 172.71604,156.18703 C 165.63172,172.07612 149.83322,174.27148 136.65359,180.58222 C 136.65359,180.58222 156.2758,176.42797 165.29141,170.32917 C 174.30702,164.23037 172.71604,156.18703 172.71604,156.18703 z "
         style="opacity:0.73142856;fill:#ffffff;fill-opacity:1;fill-rule:evenodd;stroke:none;stroke-width:1px;stroke-linecap:butt;stroke-linejoin:miter;stroke-opacity:1;filter:url(#filter6039)" />
      <path
         style="opacity:0.78857141;fill:url(#linearGradient6259);fill-opacity:1;fill-rule:evenodd;stroke:none;stroke-width:1px;stroke-linecap:butt;stroke-linejoin:miter;stroke-opacity:1"
         d="M 113,131.75 L 112.5,141.5 C 112.5,141.5 142.4375,128.0625 162.5,128 C 182.5625,127.9375 190.5,134.75 190.5,134.75 C 190.5,134.75 181.8125,124.25 162.75,123.25 C 143.6875,122.25 113,131.75 113,131.75 z "
         id="path6257"
         sodipodi:nodetypes="ccscsc" />
      <path
         style="opacity:0.73142856;fill:#ffffff;fill-opacity:1;fill-rule:evenodd;stroke:none;stroke-width:1px;stroke-linecap:butt;stroke-linejoin:miter;stroke-opacity:1"
         d="M 170.91473,159.34287 C 167.10919,169.04617 157.71382,170.79203 149.99836,174.92934 C 149.99836,174.92934 161.62866,171.90654 166.85775,168.00993 C 172.08685,164.11331 170.91473,159.34287 170.91473,159.34287 z "
         id="path6261"
         sodipodi:nodetypes="ccsc" />
      <path
         sodipodi:nodetypes="cscccsc"
         id="path6401"
         d="M 36,50.5 C 51.891212,39.608788 51.659033,30.103838 67.5,19.5 C 76.354972,13.57254 86.731366,10.957238 109.5,9.25 L 109.5,31 C 108.34796,24.510181 107.51004,16.449812 105.75,13 C 105.75,13 89.219185,12.748728 71.75,21.75 C 56.04615,29.841656 54.449754,42.108138 36,50.5 z "
         style="opacity:0.57142861;fill:url(#linearGradient6465);fill-opacity:1;fill-rule:evenodd;stroke:none;stroke-width:1px;stroke-linecap:butt;stroke-linejoin:miter;stroke-opacity:1;filter:url(#filter6455)" />
      <g
         id="g4684"
         transform="translate(41,34.25)">
        <path
           transform="matrix(1.875,0,0,1.875,-193.125,-188.25)"
           sodipodi:type="arc"
           style="opacity:0.83999999;color:#000000;fill:#ffffff;fill-opacity:1;fill-rule:evenodd;stroke:none;stroke-width:4;stroke-linecap:round;stroke-linejoin:round;marker:none;marker-start:none;marker-mid:none;marker-end:none;stroke-miterlimit:4;stroke-dasharray:none;stroke-dashoffset:0;stroke-opacity:1;visibility:visible;display:inline;overflow:visible;filter:url(#filter6341);enable-background:accumulate"
           id="path4686"
           sodipodi:cx="171"
           sodipodi:cy="170"
           sodipodi:rx="4"
           sodipodi:ry="4"
           d="M 175 170 A 4 4 0 1 1  167,170 A 4 4 0 1 1  175 170 z" />
        <path
           d="M 175 170 A 4 4 0 1 1  167,170 A 4 4 0 1 1  175 170 z"
           sodipodi:ry="4"
           sodipodi:rx="4"
           sodipodi:cy="170"
           sodipodi:cx="171"
           id="path4688"
           style="opacity:1;color:#000000;fill:#ffffff;fill-opacity:1;fill-rule:evenodd;stroke:none;stroke-width:4;stroke-linecap:round;stroke-linejoin:round;marker:none;marker-start:none;marker-mid:none;marker-end:none;stroke-miterlimit:4;stroke-dasharray:none;stroke-dashoffset:0;stroke-opacity:1;visibility:visible;display:inline;overflow:visible;enable-background:accumulate"
           sodipodi:type="arc"
           transform="matrix(0.875,0,0,0.875,-22.125,-18.25)" />
      </g>
      <path
         transform="matrix(0.8421053,0,0,0.8421053,12.631579,4.7706844)"
         sodipodi:nodetypes="csccsc"
         id="path5659"
         d="M 42,48.25 C 42,48.25 60.9375,36.25 72.5,32 C 84.0625,27.75 88.25,31.25 88.25,31.25 L 89.5,26.25 C 89.5,26.25 82.125,22.25 70.25,27.75 C 58.375,33.25 42,48.25 42,48.25 z "
         style="opacity:0.28;fill:#ffffff;fill-opacity:1;fill-rule:evenodd;stroke:none;stroke-width:1px;stroke-linecap:butt;stroke-linejoin:miter;stroke-opacity:1;filter:url(#filter5721)" />
      <g
         style="opacity:0.85142857"
         transform="matrix(0.8666667,0,0,0.8666667,-45.5,-89.35)"
         id="g6361">
        <path
           d="M 175 170 A 4 4 0 1 1  167,170 A 4 4 0 1 1  175 170 z"
           sodipodi:ry="4"
           sodipodi:rx="4"
           sodipodi:cy="170"
           sodipodi:cx="171"
           id="path6345"
           style="opacity:0.83999999;color:#000000;fill:#ffffff;fill-opacity:1;fill-rule:evenodd;stroke:none;stroke-width:4;stroke-linecap:round;stroke-linejoin:round;marker:none;marker-start:none;marker-mid:none;marker-end:none;stroke-miterlimit:4;stroke-dasharray:none;stroke-dashoffset:0;stroke-opacity:1;visibility:visible;display:inline;overflow:visible;filter:url(#filter6341);enable-background:accumulate"
           sodipodi:type="arc"
           transform="matrix(1.875,0,0,1.875,-193.125,-188.25)" />
        <path
           transform="matrix(0.875,0,0,0.875,-22.125,-18.25)"
           sodipodi:type="arc"
           style="opacity:1;color:#000000;fill:#ffffff;fill-opacity:1;fill-rule:evenodd;stroke:none;stroke-width:4;stroke-linecap:round;stroke-linejoin:round;marker:none;marker-start:none;marker-mid:none;marker-end:none;stroke-miterlimit:4;stroke-dasharray:none;stroke-dashoffset:0;stroke-opacity:1;visibility:visible;display:inline;overflow:visible;enable-background:accumulate"
           id="path6347"
           sodipodi:cx="171"
           sodipodi:cy="170"
           sodipodi:rx="4"
           sodipodi:ry="4"
           d="M 175 170 A 4 4 0 1 1  167,170 A 4 4 0 1 1  175 170 z" />
      </g>
    </g>
  </g>
</svg>
